<svg id="visual" viewBox="0 0 " width="960" height="540" xmlns="http://www.w3.org/2000/svg" xmlns:xlink="http://www.w3.org/1999/xlink" version="1.1"><rect width="960" height="540" fill="#161616"></rect><g><g transform="translate(87 461)"><path d="M0 -124L97 -77.3L120.9 27.6L53.8 111.7L-53.8 111.7L-120.9 27.6L-97 -77.3Z" fill="none" stroke="#ffffff" stroke-width="2"></path></g><g transform="translate(343 172)"><path d="M0 -34L26.6 -21.2L33.1 7.6L14.8 30.6L-14.8 30.6L-33.1 7.6L-26.6 -21.2Z" fill="none" stroke="#ffffff" stroke-width="2"></path></g><g transform="translate(338 517)"><path d="M0 -58L45.3 -36.2L56.5 12.9L25.2 52.3L-25.2 52.3L-56.5 12.9L-45.3 -36.2Z" fill="none" stroke="#ffffff" stroke-width="2"></path></g><g transform="translate(715 233)"><path d="M0 -108L84.4 -67.3L105.3 24L46.9 97.3L-46.9 97.3L-105.3 24L-84.4 -67.3Z" stroke="#ffffff" fill="none" stroke-width="2"></path></g><g transform="translate(677 527)"><path d="M0 -98L76.6 -61.1L95.5 21.8L42.5 88.3L-42.5 88.3L-95.5 21.8L-76.6 -61.1Z" stroke="#ffffff" fill="none" stroke-width="2"></path></g><g transform="translate(62 14)"><path d="M0 -112L87.6 -69.8L109.2 24.9L48.6 100.9L-48.6 100.9L-109.2 24.9L-87.6 -69.8Z" stroke="#ffffff" fill="none" stroke-width="2"></path></g><g transform="translate(935 424)"><path d="M0 -21L16.4 -13.1L20.5 4.7L9.1 18.9L-9.1 18.9L-20.5 4.7L-16.4 -13.1Z" stroke="#ffffff" fill="none" stroke-width="2"></path></g><g transform="translate(933 88)"><path d="M0 -87L68 -54.2L84.8 19.4L37.7 78.4L-37.7 78.4L-84.8 19.4L-68 -54.2Z" stroke="#ffffff" fill="none" stroke-width="2"></path></g><g transform="translate(583 22)"><path d="M0 -107L83.7 -66.7L104.3 23.8L46.4 96.4L-46.4 96.4L-104.3 23.8L-83.7 -66.7Z" stroke="#ffffff" fill="none" stroke-width="2"></path></g></g></svg>