<svg width="122" height="122" viewBox="0 0 122 122" fill="none" xmlns="http://www.w3.org/2000/svg">
<g filter="url(#filter0_di_295_3)">
<circle cx="63" cy="55" r="50" fill="#343232"/>
</g>
<path d="M37.2375 29.2125L41.3422 75.7281C41.5125 77.6609 42.8578 79.2906 44.7235 79.8234L61.3531 84.575C62.7563 84.9766 64.2422 84.9766 65.6453 84.575L82.275 79.8234C84.1406 79.2906 85.486 77.6625 85.6563 75.7281L89.761 29.2125C89.9235 27.3844 88.4844 25.8125 86.65 25.8125H40.35C38.5156 25.8125 37.0766 27.3844 37.2375 29.2125Z" fill="url(#paint0_linear_295_3)"/>
<path d="M63.5 30.5V80.3438L78.9312 75.9344C80.1766 75.5781 81.0734 74.4906 81.1859 73.2016L84.7578 32.1984C84.8375 31.2844 84.1188 30.5 83.2016 30.5H63.5Z" fill="#35C1F1"/>
<path d="M77.7187 38.3125H63.5V44.5625H71.1562L70.6875 50.8125H63.5V57.0625H70.375L69.9063 64.0937L63.5 66.2812V72.8437L75.8437 68.7812L76.9375 50.8125L77.7187 38.3125Z" fill="white"/>
<path d="M63.5 38.3125V44.5625H49.5938L49.125 38.3125H63.5ZM56.3125 50.8125L56.625 57.0625H63.5V50.8125H56.3125ZM56.9375 60.1875H50.6875L51.1563 68.7812L63.5 72.8437V66.2812L57.0937 64.0937L56.9375 60.1875Z" fill="#D6E0E9"/>
<path opacity="0.05" d="M77.7187 38.3125L76.9375 50.8125L75.8437 68.7812L63.5 72.8437L51.1562 68.7812L50.6875 60.1875H56.9375L57.0937 64.0938L63.5 66.2812L69.9062 64.0938L70.375 57.0625H63.5H56.625L56.3125 50.8125H63.5H70.6875L71.1562 44.5625H63.5H49.5937L49.125 38.3125H63.5H77.7187ZM79.3812 36.75H77.7187H63.5H49.125H47.4406L47.5672 38.4297L48.0359 44.6797L48.1437 46.125H49.5937H63.5H69.4719L69.2375 49.25H63.5H56.3125H54.6703L54.7515 50.8906L55.064 57.1406L55.1391 58.625H50.6875H49.0375L49.1281 60.2719L49.5969 68.8656L49.6547 69.9313L50.6687 70.2656L63.0125 74.3281L63.5 74.4891L63.989 74.3281L76.3328 70.2656L77.339 69.9344L77.4031 68.8766L78.4969 50.9078L79.2781 38.4109L79.3812 36.75ZM58.439 58.625H63.5H68.7047L68.4156 62.9516L63.5 64.6297L58.6125 62.9609L58.4984 60.125L58.439 58.625Z" fill="black"/>
<path opacity="0.07" d="M77.7188 38.3125L76.9375 50.8125L75.8438 68.7812L63.5 72.8437L51.1563 68.7812L50.6875 60.1875H56.9375L57.0938 64.0937L63.5 66.2812L69.9063 64.0937L70.375 57.0625H63.5H56.625L56.3125 50.8125H63.5H70.6875L71.1563 44.5625H63.5H49.5938L49.125 38.3125H63.5H77.7188ZM78.55 37.5312H77.7188H63.5H49.125H48.2828L48.3453 38.3703L48.8141 44.6203L48.8688 45.3437H49.5938H63.5H70.3141L69.9625 50.0312H63.5H56.3125H55.4907L55.5313 50.8516L55.8438 57.1016L55.8813 57.8437H56.625H63.5H69.5406L69.1625 63.5219L63.5 65.4562L57.8531 63.5281L57.7188 60.1562L57.6875 59.4062H56.9375H50.6875H49.8625L49.9078 60.2297L50.3766 68.8234L50.4063 69.3562L50.9125 69.5234L63.2563 73.5859L63.5 73.6656L63.7438 73.5859L76.0875 69.5234L76.5906 69.3578L76.6235 68.8281L77.7172 50.8594L78.4985 38.3609L78.55 37.5312Z" fill="black"/>
<defs>
<filter id="filter0_di_295_3" x="0.8" y="0.8" width="120.4" height="120.4" filterUnits="userSpaceOnUse" color-interpolation-filters="sRGB">
<feFlood flood-opacity="0" result="BackgroundImageFix"/>
<feColorMatrix in="SourceAlpha" type="matrix" values="0 0 0 0 0 0 0 0 0 0 0 0 0 0 0 0 0 0 127 0" result="hardAlpha"/>
<feMorphology radius="1" operator="erode" in="SourceAlpha" result="effect1_dropShadow_295_3"/>
<feOffset dx="-2" dy="6"/>
<feGaussianBlur stdDeviation="5.6"/>
<feComposite in2="hardAlpha" operator="out"/>
<feColorMatrix type="matrix" values="0 0 0 0 0.420833 0 0 0 0 0.420833 0 0 0 0 0.420833 0 0 0 0.25 0"/>
<feBlend mode="normal" in2="BackgroundImageFix" result="effect1_dropShadow_295_3"/>
<feBlend mode="normal" in="SourceGraphic" in2="effect1_dropShadow_295_3" result="shape"/>
<feColorMatrix in="SourceAlpha" type="matrix" values="0 0 0 0 0 0 0 0 0 0 0 0 0 0 0 0 0 0 127 0" result="hardAlpha"/>
<feMorphology radius="1" operator="erode" in="SourceAlpha" result="effect2_innerShadow_295_3"/>
<feOffset/>
<feGaussianBlur stdDeviation="5.95"/>
<feComposite in2="hardAlpha" operator="arithmetic" k2="-1" k3="1"/>
<feColorMatrix type="matrix" values="0 0 0 0 1 0 0 0 0 1 0 0 0 0 1 0 0 0 0.25 0"/>
<feBlend mode="normal" in2="shape" result="effect2_innerShadow_295_3"/>
</filter>
<linearGradient id="paint0_linear_295_3" x1="51.5156" y1="13.7062" x2="76.4578" y2="82.2328" gradientUnits="userSpaceOnUse">
<stop stop-color="#2AA4F4"/>
<stop offset="1" stop-color="#007AD9"/>
</linearGradient>
</defs>
</svg>
