<svg width="122" height="122" viewBox="0 0 122 122" fill="none" xmlns="http://www.w3.org/2000/svg">
<g filter="url(#filter0_di_295_2)">
<circle cx="63" cy="55" r="50" fill="#343232"/>
</g>
<path d="M90.0625 25.8125H36.9375L41.625 78.9375L63.5 85.1875L85.375 78.9375L90.0625 25.8125Z" fill="#E65100"/>
<path d="M63.5 30.5V80.3438L81 75.3438L84.9063 30.5H63.5Z" fill="#FF6D00"/>
<path d="M63.5 57.0625V50.8125H76.9375L75.8437 68.7812L63.5 72.8437V66.2812L69.9062 64.0937L70.375 57.0625H63.5ZM77.4063 44.5625L77.875 38.3125H63.5V44.5625H77.4063Z" fill="white"/>
<path d="M63.5 66.2812V72.8437L51.1563 68.7812L50.5313 60.1875H56.7813L57.0938 64.0937L63.5 66.2812ZM55.8438 44.5625H63.5V38.3125H49.2812L50.375 57.0625H63.5V50.8125H56.3125L55.8438 44.5625Z" fill="#EEEEEE"/>
<defs>
<filter id="filter0_di_295_2" x="0.8" y="0.8" width="120.4" height="120.4" filterUnits="userSpaceOnUse" color-interpolation-filters="sRGB">
<feFlood flood-opacity="0" result="BackgroundImageFix"/>
<feColorMatrix in="SourceAlpha" type="matrix" values="0 0 0 0 0 0 0 0 0 0 0 0 0 0 0 0 0 0 127 0" result="hardAlpha"/>
<feMorphology radius="1" operator="erode" in="SourceAlpha" result="effect1_dropShadow_295_2"/>
<feOffset dx="-2" dy="6"/>
<feGaussianBlur stdDeviation="5.6"/>
<feComposite in2="hardAlpha" operator="out"/>
<feColorMatrix type="matrix" values="0 0 0 0 0.420833 0 0 0 0 0.420833 0 0 0 0 0.420833 0 0 0 0.25 0"/>
<feBlend mode="normal" in2="BackgroundImageFix" result="effect1_dropShadow_295_2"/>
<feBlend mode="normal" in="SourceGraphic" in2="effect1_dropShadow_295_2" result="shape"/>
<feColorMatrix in="SourceAlpha" type="matrix" values="0 0 0 0 0 0 0 0 0 0 0 0 0 0 0 0 0 0 127 0" result="hardAlpha"/>
<feMorphology radius="1" operator="erode" in="SourceAlpha" result="effect2_innerShadow_295_2"/>
<feOffset/>
<feGaussianBlur stdDeviation="5.95"/>
<feComposite in2="hardAlpha" operator="arithmetic" k2="-1" k3="1"/>
<feColorMatrix type="matrix" values="0 0 0 0 1 0 0 0 0 1 0 0 0 0 1 0 0 0 0.25 0"/>
<feBlend mode="normal" in2="shape" result="effect2_innerShadow_295_2"/>
</filter>
</defs>
</svg>
