<svg width="122" height="122" viewBox="0 0 122 122" fill="none" xmlns="http://www.w3.org/2000/svg">
<g filter="url(#filter0_di_295_7)">
<circle cx="63" cy="55" r="50" fill="#343232"/>
</g>
<path d="M34.375 83.625V27.375H90.625V83.625H34.375Z" fill="#FFD600"/>
<path d="M71.1531 69.4797C72.2344 71.2359 73.4094 72.9187 75.8985 72.9187C77.9891 72.9187 79.086 71.8797 79.086 70.4422C79.086 68.7219 77.9516 68.1109 75.6516 67.1094L74.3906 66.5719C70.7516 65.0281 68.3313 63.0938 68.3313 59.0078C68.3313 55.2422 71.2141 52.3766 75.7188 52.3766C78.9266 52.3766 81.2313 53.4875 82.8938 56.3969L78.9656 58.9078C78.1016 57.3641 77.1672 56.7563 75.7188 56.7563C74.2406 56.7563 73.3047 57.6891 73.3047 58.9078C73.3047 60.4141 74.2422 61.0234 76.4063 61.9563L77.6672 62.4937C81.9563 64.3203 84.375 66.1859 84.375 70.3797C84.375 74.8984 80.8063 77.375 76.0156 77.375C71.3297 77.375 68.6688 75.0234 67.1875 72.1125L71.1531 69.4797ZM53.05 69.6078C53.8406 71.0234 55.0422 72.1125 56.7703 72.1125C58.4234 72.1125 59.375 71.4594 59.375 68.9203V52.375H64.5828V69.7203C64.5828 74.9813 61.5313 77.375 57.075 77.375C53.0484 77.375 50.1422 74.6469 48.9578 72.1125L53.05 69.6078Z" fill="#000001"/>
<defs>
<filter id="filter0_di_295_7" x="0.8" y="0.8" width="120.4" height="120.4" filterUnits="userSpaceOnUse" color-interpolation-filters="sRGB">
<feFlood flood-opacity="0" result="BackgroundImageFix"/>
<feColorMatrix in="SourceAlpha" type="matrix" values="0 0 0 0 0 0 0 0 0 0 0 0 0 0 0 0 0 0 127 0" result="hardAlpha"/>
<feMorphology radius="1" operator="erode" in="SourceAlpha" result="effect1_dropShadow_295_7"/>
<feOffset dx="-2" dy="6"/>
<feGaussianBlur stdDeviation="5.6"/>
<feComposite in2="hardAlpha" operator="out"/>
<feColorMatrix type="matrix" values="0 0 0 0 0.420833 0 0 0 0 0.420833 0 0 0 0 0.420833 0 0 0 0.25 0"/>
<feBlend mode="normal" in2="BackgroundImageFix" result="effect1_dropShadow_295_7"/>
<feBlend mode="normal" in="SourceGraphic" in2="effect1_dropShadow_295_7" result="shape"/>
<feColorMatrix in="SourceAlpha" type="matrix" values="0 0 0 0 0 0 0 0 0 0 0 0 0 0 0 0 0 0 127 0" result="hardAlpha"/>
<feMorphology radius="1" operator="erode" in="SourceAlpha" result="effect2_innerShadow_295_7"/>
<feOffset/>
<feGaussianBlur stdDeviation="5.95"/>
<feComposite in2="hardAlpha" operator="arithmetic" k2="-1" k3="1"/>
<feColorMatrix type="matrix" values="0 0 0 0 1 0 0 0 0 1 0 0 0 0 1 0 0 0 0.25 0"/>
<feBlend mode="normal" in2="shape" result="effect2_innerShadow_295_7"/>
</filter>
</defs>
</svg>
