<svg width="122" height="122" viewBox="0 0 122 122" fill="none" xmlns="http://www.w3.org/2000/svg">
<g filter="url(#filter0_di_295_5)">
<circle cx="63" cy="55" r="50" fill="#343232"/>
</g>
<path d="M54.6469 67.2188C54.6469 68.5125 53.5984 69.5625 52.3031 69.5625C51.0078 69.5625 49.9594 68.5125 49.9594 67.2188V45.3438C49.9594 44.3234 50.6203 43.4203 51.5922 43.1094C52.5687 42.8 53.6266 43.1562 54.2156 43.9891L80.4297 81.0266C88.4641 75.3578 93.75 66.0234 93.75 55.5C93.75 38.3125 79.6875 24.25 62.5 24.25C45.3125 24.25 31.25 38.3125 31.25 55.5C31.25 72.6875 45.3125 86.75 62.5 86.75C67.4875 86.75 72.1969 85.5359 76.3906 83.4344L54.6469 52.7125V67.2188ZM70.2719 43.7812C70.2719 42.4875 71.3203 41.4375 72.6156 41.4375C73.9109 41.4375 74.9594 42.4875 74.9594 43.7812V65.4062L70.2719 58.8016V43.7812Z" fill="#F2F1F1"/>
<defs>
<filter id="filter0_di_295_5" x="0.8" y="0.8" width="120.4" height="120.4" filterUnits="userSpaceOnUse" color-interpolation-filters="sRGB">
<feFlood flood-opacity="0" result="BackgroundImageFix"/>
<feColorMatrix in="SourceAlpha" type="matrix" values="0 0 0 0 0 0 0 0 0 0 0 0 0 0 0 0 0 0 127 0" result="hardAlpha"/>
<feMorphology radius="1" operator="erode" in="SourceAlpha" result="effect1_dropShadow_295_5"/>
<feOffset dx="-2" dy="6"/>
<feGaussianBlur stdDeviation="5.6"/>
<feComposite in2="hardAlpha" operator="out"/>
<feColorMatrix type="matrix" values="0 0 0 0 0.420833 0 0 0 0 0.420833 0 0 0 0 0.420833 0 0 0 0.25 0"/>
<feBlend mode="normal" in2="BackgroundImageFix" result="effect1_dropShadow_295_5"/>
<feBlend mode="normal" in="SourceGraphic" in2="effect1_dropShadow_295_5" result="shape"/>
<feColorMatrix in="SourceAlpha" type="matrix" values="0 0 0 0 0 0 0 0 0 0 0 0 0 0 0 0 0 0 127 0" result="hardAlpha"/>
<feMorphology radius="1" operator="erode" in="SourceAlpha" result="effect2_innerShadow_295_5"/>
<feOffset/>
<feGaussianBlur stdDeviation="5.95"/>
<feComposite in2="hardAlpha" operator="arithmetic" k2="-1" k3="1"/>
<feColorMatrix type="matrix" values="0 0 0 0 1 0 0 0 0 1 0 0 0 0 1 0 0 0 0.25 0"/>
<feBlend mode="normal" in2="shape" result="effect2_innerShadow_295_5"/>
</filter>
</defs>
</svg>
