<svg width="122" height="122" viewBox="0 0 122 122" fill="none" xmlns="http://www.w3.org/2000/svg">
<g filter="url(#filter0_di_295_4)">
<circle cx="63" cy="55" r="50" fill="#343232"/>
</g>
<path d="M63.5 71.125C43.3438 71.125 27.5625 64.25 27.5625 55.5C27.5625 46.75 43.3438 39.875 63.5 39.875C83.6562 39.875 99.4375 46.75 99.4375 55.5C99.4375 64.25 83.6562 71.125 63.5 71.125ZM63.5 43C43.8125 43 30.6875 49.4062 30.6875 55.5C30.6875 61.5938 43.8125 68 63.5 68C83.1875 68 96.3125 61.5938 96.3125 55.5C96.3125 49.4062 83.1875 43 63.5 43Z" fill="#80DEEA"/>
<path d="M49.5937 87.6875C48.0312 87.6875 46.7812 87.375 45.5312 86.5938C37.875 82.2188 39.9062 65.1875 49.9062 47.6875C54.5937 39.5625 60.375 32.6875 66 28.3125C72.0937 23.625 77.5625 22.2188 81.3125 24.4063C85.2187 26.5938 86.625 32.0625 85.6875 39.7188C84.75 46.9062 81.625 55.3438 76.9375 63.4688C72.25 71.5938 66.4687 78.4688 60.8437 82.8438C56.7812 85.9688 52.875 87.6875 49.5937 87.6875ZM77.4062 26.4375C74.9062 26.4375 71.625 27.8438 68.0312 30.6563C62.7187 34.875 57.25 41.4375 52.7187 49.25C42.875 66.2812 41.9375 80.9688 47.0937 83.9375C49.75 85.5 54.125 84.0938 58.9687 80.3438C64.2812 76.125 69.75 69.5625 74.2812 61.75C78.8125 53.9375 81.7812 45.9688 82.7187 39.25C83.5 33 82.5625 28.625 79.9062 27.0625C79.125 26.75 78.3437 26.4375 77.4062 26.4375Z" fill="#80DEEA"/>
<path d="M77.5625 87.6875C69.75 87.6875 58.5 78.1562 50.0625 63.3125C39.9062 45.8125 37.875 28.7812 45.5312 24.4062C53.1875 20.0312 66.9375 30.1875 77.0937 47.6875C81.7812 55.8125 84.9062 64.25 85.8437 71.4375C86.9375 79.0937 85.375 84.4062 81.4687 86.75C80.2187 87.375 78.9687 87.6875 77.5625 87.6875ZM47.0937 27.0625C41.9375 30.0312 42.875 44.7187 52.7187 61.75C62.5625 78.7812 74.75 86.9062 79.9062 83.9375C82.5625 82.375 83.5 78 82.7187 71.75C81.7812 65.0312 78.8125 57.0625 74.2812 49.25C64.4375 32.2187 52.25 24.0937 47.0937 27.0625Z" fill="#80DEEA"/>
<path d="M63.5 61.75C66.9518 61.75 69.75 58.9518 69.75 55.5C69.75 52.0482 66.9518 49.25 63.5 49.25C60.0482 49.25 57.25 52.0482 57.25 55.5C57.25 58.9518 60.0482 61.75 63.5 61.75Z" fill="#80DEEA"/>
<defs>
<filter id="filter0_di_295_4" x="0.8" y="0.8" width="120.4" height="120.4" filterUnits="userSpaceOnUse" color-interpolation-filters="sRGB">
<feFlood flood-opacity="0" result="BackgroundImageFix"/>
<feColorMatrix in="SourceAlpha" type="matrix" values="0 0 0 0 0 0 0 0 0 0 0 0 0 0 0 0 0 0 127 0" result="hardAlpha"/>
<feMorphology radius="1" operator="erode" in="SourceAlpha" result="effect1_dropShadow_295_4"/>
<feOffset dx="-2" dy="6"/>
<feGaussianBlur stdDeviation="5.6"/>
<feComposite in2="hardAlpha" operator="out"/>
<feColorMatrix type="matrix" values="0 0 0 0 0.420833 0 0 0 0 0.420833 0 0 0 0 0.420833 0 0 0 0.25 0"/>
<feBlend mode="normal" in2="BackgroundImageFix" result="effect1_dropShadow_295_4"/>
<feBlend mode="normal" in="SourceGraphic" in2="effect1_dropShadow_295_4" result="shape"/>
<feColorMatrix in="SourceAlpha" type="matrix" values="0 0 0 0 0 0 0 0 0 0 0 0 0 0 0 0 0 0 127 0" result="hardAlpha"/>
<feMorphology radius="1" operator="erode" in="SourceAlpha" result="effect2_innerShadow_295_4"/>
<feOffset/>
<feGaussianBlur stdDeviation="5.95"/>
<feComposite in2="hardAlpha" operator="arithmetic" k2="-1" k3="1"/>
<feColorMatrix type="matrix" values="0 0 0 0 1 0 0 0 0 1 0 0 0 0 1 0 0 0 0.25 0"/>
<feBlend mode="normal" in2="shape" result="effect2_innerShadow_295_4"/>
</filter>
</defs>
</svg>
