<svg width="122" height="122" viewBox="0 0 122 122" fill="none" xmlns="http://www.w3.org/2000/svg">
<g filter="url(#filter0_di_295_6)">
<circle cx="63" cy="55" r="50" fill="#343232"/>
</g>
<path d="M62.5 33.0062C52.5 33.0062 46.25 38.0047 43.75 48.0015C47.5 43.0031 51.875 41.1297 56.875 42.3781C59.7281 43.0906 61.7672 45.1609 64.025 47.4515C67.7 51.1812 71.9547 55.5 81.25 55.5C91.25 55.5 97.5 50.5015 100 40.5031C96.25 45.5015 91.875 47.3765 86.875 46.1281C84.0234 45.4156 81.9844 43.3453 79.7266 41.0547C76.05 37.3234 71.7938 33.0062 62.5 33.0062ZM43.75 55.5C33.75 55.5 27.5 60.4984 25 70.4968C28.75 65.4984 33.125 63.6234 38.125 64.8734C40.9766 65.5875 43.0156 67.6562 45.2734 69.9453C48.95 73.6765 53.2062 77.9953 62.5 77.9953C72.5 77.9953 78.75 72.9968 81.25 62.9984C77.5 67.9968 73.125 69.8718 68.125 68.6218C65.2719 67.9093 63.2328 65.839 60.975 63.55C57.3 59.8187 53.0453 55.5 43.75 55.5Z" fill="#00ACC1"/>
<defs>
<filter id="filter0_di_295_6" x="0.8" y="0.8" width="120.4" height="120.4" filterUnits="userSpaceOnUse" color-interpolation-filters="sRGB">
<feFlood flood-opacity="0" result="BackgroundImageFix"/>
<feColorMatrix in="SourceAlpha" type="matrix" values="0 0 0 0 0 0 0 0 0 0 0 0 0 0 0 0 0 0 127 0" result="hardAlpha"/>
<feMorphology radius="1" operator="erode" in="SourceAlpha" result="effect1_dropShadow_295_6"/>
<feOffset dx="-2" dy="6"/>
<feGaussianBlur stdDeviation="5.6"/>
<feComposite in2="hardAlpha" operator="out"/>
<feColorMatrix type="matrix" values="0 0 0 0 0.420833 0 0 0 0 0.420833 0 0 0 0 0.420833 0 0 0 0.25 0"/>
<feBlend mode="normal" in2="BackgroundImageFix" result="effect1_dropShadow_295_6"/>
<feBlend mode="normal" in="SourceGraphic" in2="effect1_dropShadow_295_6" result="shape"/>
<feColorMatrix in="SourceAlpha" type="matrix" values="0 0 0 0 0 0 0 0 0 0 0 0 0 0 0 0 0 0 127 0" result="hardAlpha"/>
<feMorphology radius="1" operator="erode" in="SourceAlpha" result="effect2_innerShadow_295_6"/>
<feOffset/>
<feGaussianBlur stdDeviation="5.95"/>
<feComposite in2="hardAlpha" operator="arithmetic" k2="-1" k3="1"/>
<feColorMatrix type="matrix" values="0 0 0 0 1 0 0 0 0 1 0 0 0 0 1 0 0 0 0.25 0"/>
<feBlend mode="normal" in2="shape" result="effect2_innerShadow_295_6"/>
</filter>
</defs>
</svg>
